# xmcd CD database file
#
# Track frame offsets:
#	150
#	18031
#	34420
#	43804
#	58528
#	68821
#	84725
#	100934
#	121460
#	140280
#	154269
#	171370
#	185764
#	199519
#	210219
#	235447
#	250679
#	260512
#
# Disc length: 3623 seconds
#
# Revision: 3
# Processed by: cddbd v1.5.2PL0 Copyright (c) Steve Scherf et al.
# Submitted via: CDex 1.70beta2
#
DISCID=fc0e2512
DTITLE=Blaskapelle Gloria and Blaskapelle Klarus - Schmeicheleien
DYEAR=2003
DGENRE=Blasmusik
TTITLE0=Blaskapelle Gloria - Kätzchenpolka
TTITLE1=Blaskapelle Gloria - Morgentau (Polka)
TTITLE2=Blaskapelle Gloria - Geburgstagsgrüsse (Bravourpolka)
TTITLE3=Blaskapelle Gloria - In den Armen (Walzer)
TTITLE4=Blaskapelle Gloria - Kyjovanka (Polka)
TTITLE5=Blaskapelle Gloria - Victoria (Polka)
TTITLE6=Blaskapelle Gloria - Wir spielen Ländler
TTITLE7=Blaskapelle Gloria - Mein Tenorhorn (Polka)
TTITLE8=Blaskapelle Klarus - Freundschaft (Polka)
TTITLE9=Blaskapelle Klarus - Ein alter Mann ist kein D-Zug (Polka)
TTITLE10=Blaskapelle Klarus - Egerländer Gold (Polka)
TTITLE11=Blaskapelle Klarus - Liebeswalzer
TTITLE12=Blaskapelle Klarus - Neckische Polka
TTITLE13=Blaskapelle Klarus - Schneeglöckchen (Polka)
TTITLE14=Blaskapelle Klarus - Im Bayerwald (Ländler)
TTITLE15=Blaskapelle Klarus - Lachende Klarinetten (Polka)
TTITLE16=Blaskapelle Klarus - Heut' ist ein schöner Tag (Polka)
TTITLE17=Blaskapelle Klarus - Schmeicheleien (Polka)
EXTD=YEAR: 2003
EXTT0=
EXTT1=
EXTT2=
EXTT3=
EXTT4=
EXTT5=
EXTT6=
EXTT7=
EXTT8=
EXTT9=
EXTT10=
EXTT11=
EXTT12=
EXTT13=
EXTT14=
EXTT15=
EXTT16=
EXTT17=
PLAYORDER=
